:SAMPLES-PER-SECOND 30
:FULLY-SPECIFIED
:DEGREES
927
root  29.749 37.8406 11.4783 124.85 -87.9953 -117.443
RightUpLeg  -36.3889 -22.9611 3.23366
RightLeg  18.4326 -1.88333 0.299353
RightFoot  6.63045 -0.660787 4.51152
RightToes  5.82063e-011 0 -3.6325e-017
Spine  62.7524 -3.55858 3.85672
Spine1  19.1179 0.451945 -4.95856
HEad  -23.6 23.1044 -33.6908
LeftShoulder1  3.96127 -16.8243 -12.3838
LeftArm  42.073 -88.5969 -104.951
LeftForeArm  7.48225 -9.21219 -3.93117
LeftHand  -0.244104 0.0205437 5.32207
RightShoulder  3.80602 15.7786 12.7084
RightArm  -60.149 60.2337 -1.10037
RightForeArm  -51.8945 3.23001 2.19791
RightHand  -0.591043 5.30994 -6.71055
LeftUpLeg  -32.2959 3.12995 1.43886
LeftLeg  41.3421 2.29688 2.55989
LeftFoot  -12.3659 0.0513834 -2.04379
LeftToes  1.45487e-011 -6.19069e-011 1.65092e-011
928
root  30.7029 37.9424 12.343 152.424 -88.2473 -144.375
RightUpLeg  -34.498 -19.1322 -1.97441
RightLeg  13.6548 -8.68981 1.685
RightFoot  4.77072 -1.07697 7.85667
RightToes  5.82063e-011 0 -3.6325e-017
Spine  63.0151 -3.72573 3.47756
Spine1  18.4107 0.110334 -4.92473
HEad  -23.0549 20.501 -31.7274
LeftShoulder1  4.14428 -17.1484 -13.0194
LeftArm  41.5143 -87.8178 -104.275
LeftForeArm  7.75459 -9.72113 -4.25872
LeftHand  -0.244104 0.0205437 5.32207
RightShoulder  4.10731 16.2757 13.835
RightArm  -60.0291 58.9351 -2.65332
RightForeArm  -51.4989 3.62958 2.42318
RightHand  -0.544652 5.20499 -6.26565
LeftUpLeg  -32.6131 6.43036 -2.20673
LeftLeg  36.9248 1.65214 1.70404
LeftFoot  -11.5966 0.0648402 2.84182
LeftToes  1.45487e-011 -6.19069e-011 1.65092e-011
929
root  31.6614 38.0211 13.1649 174.74 -87.4076 -166.138
RightUpLeg  -33.4547 -16.2414 -5.59207
RightLeg  10.2044 -16.2953 2.77649
RightFoot  1.89482 -1.07756 9.33677
RightToes  5.82063e-011 0 -3.6325e-017
Spine  63.0632 -3.66166 3.38413
Spine1  17.8742 0.222855 -5.25506
HEad  -22.7845 17.9455 -29.5367
LeftShoulder1  4.43957 -17.5762 -14.1026
LeftArm  52.5278 -87.2639 -114.883
LeftForeArm  8.34238 -10.2562 -4.63877
LeftHand  -0.244104 0.0205437 5.32207
RightShoulder  4.3251 16.6119 14.6379
RightArm  -60.3743 57.5549 -4.23114
RightForeArm  -51.255 3.92301 2.42347
RightHand  -0.504891 5.26326 -5.80337
LeftUpLeg  -34.1644 10.2709 -5.38801
LeftLeg  34.4489 0.569493 0.781372
LeftFoot  -8.4674 -0.0970304 6.08052
LeftToes  1.45487e-011 -6.19069e-011 1.65092e-011
930
root  32.5802 38.0806 13.9639 -174.632 -85.5763 -176.336
RightUpLeg  -34.4487 -18.1782 -4.96719
RightLeg  10.1754 -18.4247 2.36509
RightFoot  0.518015 -0.870036 8.40188
RightToes  5.82063e-011 0 -3.6325e-017
Spine  63.175 -3.43522 3.03856
Spine1  17.8546 0.771013 -6.35409
HEad  -22.5173 15.9023 -28.0961
LeftShoulder1  4.9499 -17.9749 -16.2664
LeftArm  60.5322 -86.7368 -121.566
LeftForeArm  9.27342 -10.8355 -5.20553
LeftHand  -0.244104 0.0205437 5.32207
RightShoulder  4.51258 16.8866 15.3234
RightArm  -60.8591 56.6553 -5.35248
RightForeArm  -50.6913 3.88917 2.27298
RightHand  -0.456403 5.46024 -5.19091
LeftUpLeg  -35.4824 13.9537 -8.1742
LeftLeg  32.4932 -0.881409 -0.243224
LeftFoot  -5.8164 -0.312344 7.23223
LeftToes  1.45487e-011 -6.19069e-011 1.65092e-011
931
root  33.482 38.1196 14.7591 -172.421 -83.5637 -178.255
RightUpLeg  -38.2295 -25.2113 0.706107
RightLeg  15.4878 -12.3998 -0.793211
RightFoot  0.420073 -0.681695 6.64153
RightToes  5.82063e-011 0 -3.6325e-017
Spine  63.344 -3.3845 2.82627
Spine1  17.7195 1.13552 -7.33042
HEad  -22.225 14.7257 -27.8376
LeftShoulder1  5.45174 -18.2418 -18.4559
LeftArm  57.476 -86.3011 -116.695
LeftForeArm  9.87078 -11.3888 -5.74608
LeftHand  -0.244104 0.0205437 5.32207
RightShoulder  4.69557 17.1672 15.9584
RightArm  -61.1617 56.3557 -5.88354
RightForeArm  -49.5504 3.63577 2.12749
RightHand  -0.394398 5.63545 -4.467
LeftUpLeg  -36.2876 17.196 -10.7613
LeftLeg  29.7329 -2.34316 -1.09691
LeftFoot  -4.01486 -0.517131 8.41708
LeftToes  1.45487e-011 -6.19069e-011 1.65092e-011
932
root  34.3747 38.1429 15.5187 -173.141 -82.0815 -177.383
RightUpLeg  -41.6077 -28.5703 4.51352
RightLeg  24.0809 -8.29044 -4.68003
RightFoot  -0.14934 -0.560793 5.70856
RightToes  5.82063e-011 0 -3.6325e-017
Spine  63.6076 -3.59351 3.0426
Spine1  17.0598 1.04386 -7.52575
HEad  -22.2261 14.257 -28.0917
LeftShoulder1  5.79681 -18.4424 -19.894
LeftArm  48.1448 -85.8873 -105.581
LeftForeArm  9.65214 -12.0017 -6.11545
LeftHand  -0.244104 0.0205437 5.32207
RightShoulder  4.87079 17.4769 16.4989
RightArm  -61.2487 56.2221 -6.28368
RightForeArm  -48.141 3.41607 2.07686
RightHand  -0.349826 5.79896 -3.9494
LeftUpLeg  -36.9419 19.2824 -12.9206
LeftLeg  26.6433 -3.09973 -1.35383
LeftFoot  -1.9143 -0.814482 9.99225
LeftToes  1.45487e-011 -6.19069e-011 1.65092e-011
933
root  35.2405 38.1521 16.2176 -174.96 -80.8579 -175.571
RightUpLeg  -41.4713 -26.3679 2.98286
RightLeg  33.2301 -10.5749 -7.6068
RightFoot  -1.75142 -0.4242 4.88624
RightToes  5.82063e-011 0 -3.6325e-017
Spine  64.0119 -3.86375 3.46627
Spine1  16.3162 0.909716 -7.39076
HEad  -22.5585 14.0015 -27.9787
LeftShoulder1  6.12441 -18.6291 -21.2322
LeftArm  41.0476 -85.5013 -96.5796
LeftForeArm  8.94815 -12.8229 -6.35146
LeftHand  -0.244104 0.0205437 5.32207
RightShoulder  5.04823 17.8079 17.0074
RightArm  -61.3664 56.0632 -7.05026
RightForeArm  -47.0174 3.28495 2.10641
RightHand  -0.337255 5.92556 -3.78325
LeftUpLeg  -37.5634 20.457 -14.3679
LeftLeg  24.1102 -3.24547 -1.25232
LeftFoot  0.453861 -1.10568 10.6632
LeftToes  1.45487e-011 -6.19069e-011 1.65092e-011
934
root  36.0784 38.1382 16.8756 -177.378 -79.3063 -173.254
RightUpLeg  -41.1819 -25.7684 3.28375
RightLeg  41.1418 -11.1102 -10.4971
RightFoot  -2.98835 -0.255331 3.24227
RightToes  5.82063e-011 0 -3.6325e-017
Spine  64.3672 -4.05218 3.87263
Spine1  15.9116 1.01888 -7.50236
HEad  -22.7233 13.6419 -27.3347
LeftShoulder1  6.47999 -18.7347 -22.7871
LeftArm  35.9269 -85.269 -89.6857
LeftForeArm  8.48067 -13.673 -6.41653
LeftHand  -0.244104 0.0205437 5.32207
RightShoulder  5.22885 18.1304 17.5256
RightArm  -61.6382 56.1938 -7.88289
RightForeArm  -46.2533 3.09099 2.13922
RightHand  -0.322832 5.83999 -3.6582
LeftUpLeg  -38.1526 21.993 -15.5028
LeftLeg  21.8239 -3.73321 -1.30909
LeftFoot  2.47379 -1.32079 10.7398
LeftToes  1.45487e-011 -6.19069e-011 1.65092e-011
935
root  36.8993 38.0501 17.5005 -179.079 -77.5898 -171.707
RightUpLeg  -40.4487 -25.8794 4.03782
RightLeg  47.9639 -10.6438 -12.6802
RightFoot  -2.74836 -0.213529 2.54708
RightToes  5.82063e-011 0 -3.6325e-017
Spine  64.3805 -4.20088 4.12466
Spine1  15.6699 1.0916 -7.74039
HEad  -22.4004 13.1358 -26.4747
LeftShoulder1  6.69155 -18.7506 -23.7659
LeftArm  27.9591 -85.0377 -81.0099
LeftForeArm  8.58141 -14.1144 -6.30511
LeftHand  -0.244104 0.0205437 5.32207
RightShoulder  5.37974 18.4272 17.9122
RightArm  -61.8714 56.7575 -8.07954
RightForeArm  -45.5054 2.72915 2.10867
RightHand  -0.282677 5.54738 -3.31443
LeftUpLeg  -38.8898 23.9511 -16.8769
LeftLeg  19.6038 -4.66792 -1.51094
LeftFoot  4.16242 -1.60008 11.5174
LeftToes  1.45487e-011 -6.19069e-011 1.65092e-011
936
root  37.7191 37.8612 18.0861 -179.149 -76.2022 -171.96
RightUpLeg  -38.373 -26.1238 4.06332
RightLeg  52.7909 -9.09155 -12.9563
RightFoot  -2.72263 -0.392092 5.02343
RightToes  5.82063e-011 0 -3.6325e-017
Spine  64.0112 -4.33929 4.13507
Spine1  15.4341 0.900652 -7.77629
HEad  -21.9526 12.4785 -25.5691
LeftShoulder1  6.70445 -18.764 -23.8074
LeftArm  18.6358 -84.6121 -72.093
LeftForeArm  8.85625 -14.0072 -6.16861
LeftHand  -0.244104 0.0205437 5.32207
RightShoulder  5.48755 18.7181 18.0854
RightArm  -61.8502 57.3701 -7.6476
RightForeArm  -44.6924 2.20531 2.0115
RightHand  -0.242624 5.32946 -2.93794
LeftUpLeg  -39.693 25.016 -18.1771
LeftLeg  18.0012 -4.91996 -1.56089
LeftFoot  5.73249 -1.91895 12.5031
LeftToes  1.45487e-011 -6.19069e-011 1.65092e-011
